<svg xmlns="http://www.w3.org/2000/svg" xmlns:xlink="http://www.w3.org/1999/xlink" width="500" zoomAndPan="magnify" viewBox="0 0 375 374.999991" height="500" preserveAspectRatio="xMidYMid meet" version="1.0"><path fill="#6f66a9" d="M 375 258.386719 C 375 258.386719 281.722656 257.441406 261.804688 240.054688 C 241.882812 222.988281 155.566406 267.871094 155.566406 267.871094 C 155.566406 267.871094 279.828125 346.253906 375 258.386719 Z M 375 258.386719 " fill-opacity="1" fill-rule="nonzero"/><path fill="#6f66a9" d="M 330.101562 190.117188 C 330.101562 190.117188 236.824219 189.171875 216.90625 171.785156 C 196.984375 154.402344 110.667969 199.601562 110.667969 199.601562 C 110.667969 199.601562 234.929688 277.667969 330.101562 190.117188 Z M 330.101562 190.117188 " fill-opacity="1" fill-rule="nonzero"/><path fill="#f39cb4" d="M 221.648438 31.457031 C 221.648438 31.457031 169.160156 53.261719 164.101562 77.917969 C 164.101562 77.917969 144.816406 37.777344 108.453125 39.355469 C 72.089844 40.9375 46.796875 120.585938 104.976562 158.828125 C 104.976562 158.828125 17.707031 127.855469 11.382812 205.289062 C 9.484375 229.308594 59.128906 283.039062 129.636719 234.683594 C 129.636719 234.683594 98.335938 341.828125 152.71875 318.441406 C 152.71875 318.441406 169.160156 347.832031 211.847656 309.273438 C 211.847656 309.273438 257.695312 285.886719 215.007812 242.585938 C 215.007812 242.585938 272.554688 228.679688 280.777344 217.617188 C 288.996094 206.871094 298.796875 183.480469 298.796875 183.480469 C 298.796875 183.480469 298.796875 150.925781 282.355469 143.023438 C 265.914062 135.125 236.507812 124.378906 211.847656 138.285156 C 211.847656 138.285156 236.507812 122.796875 229.871094 97.828125 C 229.871094 97.828125 254.53125 60.53125 231.449219 51.367188 C 208.367188 42.203125 221.648438 31.457031 221.648438 31.457031 Z M 221.648438 31.457031 " fill-opacity="1" fill-rule="nonzero"/><path fill="#6f66a9" d="M 84.105469 155.035156 C 84.105469 155.035156 59.128906 139.230469 57.230469 133.859375 C 55.332031 128.484375 23.398438 119.636719 23.398438 119.636719 C 23.398438 119.636719 41.738281 150.609375 84.105469 155.035156 Z M 84.105469 155.035156 " fill-opacity="1" fill-rule="nonzero"/><path fill="#6f66a9" d="M 78.097656 155.351562 C 78.097656 155.351562 68.296875 101.304688 73.355469 91.507812 C 78.414062 81.710938 49.957031 27.03125 49.957031 27.03125 C 49.957031 27.03125 30.355469 91.191406 78.097656 155.351562 Z M 78.097656 155.351562 " fill-opacity="1" fill-rule="nonzero"/><path fill="#ffd9f8" d="M 207.105469 37.460938 C 207.105469 37.460938 156.511719 46.308594 161.257812 111.734375 C 161.257812 111.734375 202.359375 45.363281 211.847656 54.527344 C 221.015625 63.695312 210.265625 96.5625 201.097656 97.828125 C 201.097656 97.828125 190.34375 133.542969 177.699219 133.542969 C 165.050781 133.542969 204.574219 144.289062 218.171875 97.828125 C 218.171875 97.828125 239.988281 127.222656 184.023438 159.777344 C 184.023438 159.777344 235.5625 144.289062 229.871094 97.828125 C 229.871094 97.828125 254.53125 64.640625 238.089844 45.992188 C 221.648438 27.347656 215.007812 32.402344 215.007812 32.402344 Z M 207.105469 37.460938 " fill-opacity="1" fill-rule="nonzero"/><path fill="#ffd9f8" d="M 28.457031 173.050781 C 28.457031 173.050781 0 209.082031 37.941406 237.527344 C 75.886719 265.972656 141.96875 238.792969 136.910156 222.355469 C 136.910156 222.355469 93.277344 269.132812 50.273438 227.730469 C 50.273438 227.730469 128.371094 242.269531 110.351562 211.292969 C 110.351562 211.292969 91.0625 243.214844 44.898438 204.023438 C 44.898438 204.023438 74.304688 155.035156 28.457031 173.050781 Z M 28.457031 173.050781 " fill-opacity="1" fill-rule="nonzero"/><path fill="#ffd9f8" d="M 111.929688 163.886719 C 111.929688 163.886719 69.878906 121.53125 75.570312 68.433594 C 49.957031 129.117188 111.929688 163.886719 111.929688 163.886719 Z M 111.929688 163.886719 " fill-opacity="1" fill-rule="nonzero"/><path fill="#ffd9f8" d="M 168.210938 206.871094 C 168.210938 206.871094 223.863281 231.207031 252.003906 177.792969 C 252.003906 177.792969 252.003906 212.875 227.339844 214.457031 C 227.339844 214.457031 273.820312 211.292969 287.730469 171.15625 C 287.730469 171.15625 286.152344 214.457031 248.839844 217.617188 C 248.839844 217.617188 278.246094 229.941406 296.902344 178.738281 C 297.21875 178.738281 248.839844 284.304688 168.210938 206.871094 Z M 168.210938 206.871094 " fill-opacity="1" fill-rule="nonzero"/><path fill="#ffd9f8" d="M 126.792969 238.476562 C 126.792969 238.476562 66.398438 334.242188 150.507812 319.070312 C 150.507812 319.070312 123.945312 331.082031 139.4375 283.039062 C 139.4375 283.039062 133.117188 326.972656 176.75 331.082031 C 176.75 331.082031 147.34375 319.703125 169.160156 276.402344 C 169.160156 276.402344 159.675781 342.144531 214.058594 318.753906 C 214.058594 318.753906 279.195312 269.132812 170.742188 216.351562 C 170.742188 216.351562 217.222656 259.652344 198.566406 278.300781 C 179.910156 296.945312 165.683594 227.097656 165.683594 227.097656 C 165.683594 227.097656 145.761719 281.460938 144.183594 261.230469 C 142.601562 241.003906 149.558594 220.460938 149.558594 220.460938 Z M 126.792969 238.476562 " fill-opacity="1" fill-rule="nonzero"/><path fill="#ffd9f8" d="M 141.96875 175.578125 C 141.96875 175.578125 221.015625 130.699219 249.15625 163.253906 C 249.15625 163.253906 247.574219 141.445312 232.082031 139.863281 C 232.082031 139.863281 287.414062 155.351562 296.902344 183.164062 C 296.902344 183.164062 306.070312 125.957031 235.875 128.800781 " fill-opacity="1" fill-rule="nonzero"/><path fill="#c3607e" d="M 163.785156 138.601562 C 163.785156 139.058594 163.734375 139.507812 163.632812 139.957031 C 163.53125 140.40625 163.382812 140.839844 163.183594 141.261719 C 162.984375 141.683594 162.742188 142.082031 162.453125 142.464844 C 162.164062 142.84375 161.835938 143.195312 161.46875 143.515625 C 161.105469 143.839844 160.703125 144.128906 160.273438 144.382812 C 159.839844 144.636719 159.386719 144.847656 158.90625 145.023438 C 158.425781 145.199219 157.933594 145.332031 157.421875 145.421875 C 156.914062 145.507812 156.398438 145.554688 155.882812 145.554688 C 155.363281 145.554688 154.847656 145.507812 154.339844 145.421875 C 153.828125 145.332031 153.335938 145.199219 152.855469 145.023438 C 152.375 144.847656 151.921875 144.636719 151.488281 144.382812 C 151.058594 144.128906 150.660156 143.839844 150.292969 143.515625 C 149.925781 143.195312 149.597656 142.84375 149.308594 142.464844 C 149.019531 142.082031 148.777344 141.683594 148.578125 141.261719 C 148.378906 140.839844 148.230469 140.40625 148.128906 139.957031 C 148.027344 139.507812 147.976562 139.058594 147.976562 138.601562 C 147.976562 138.144531 148.027344 137.691406 148.128906 137.242188 C 148.230469 136.796875 148.378906 136.359375 148.578125 135.9375 C 148.777344 135.515625 149.019531 135.117188 149.308594 134.738281 C 149.597656 134.359375 149.925781 134.007812 150.292969 133.683594 C 150.660156 133.359375 151.058594 133.074219 151.488281 132.820312 C 151.921875 132.566406 152.375 132.351562 152.855469 132.175781 C 153.335938 132 153.828125 131.871094 154.339844 131.78125 C 154.847656 131.691406 155.363281 131.648438 155.882812 131.648438 C 156.398438 131.648438 156.914062 131.691406 157.421875 131.78125 C 157.933594 131.871094 158.425781 132 158.90625 132.175781 C 159.386719 132.351562 159.839844 132.566406 160.273438 132.820312 C 160.703125 133.074219 161.105469 133.359375 161.46875 133.683594 C 161.835938 134.007812 162.164062 134.359375 162.453125 134.738281 C 162.742188 135.117188 162.984375 135.515625 163.183594 135.9375 C 163.382812 136.359375 163.53125 136.796875 163.632812 137.242188 C 163.734375 137.691406 163.785156 138.144531 163.785156 138.601562 Z M 163.785156 138.601562 " fill-opacity="1" fill-rule="nonzero"/><path fill="#c3607e" d="M 163.785156 188.222656 C 163.785156 188.679688 163.734375 189.128906 163.632812 189.578125 C 163.53125 190.027344 163.382812 190.460938 163.183594 190.882812 C 162.984375 191.304688 162.742188 191.707031 162.453125 192.085938 C 162.164062 192.464844 161.835938 192.816406 161.46875 193.140625 C 161.105469 193.460938 160.703125 193.75 160.273438 194.003906 C 159.839844 194.257812 159.386719 194.472656 158.90625 194.644531 C 158.425781 194.820312 157.933594 194.953125 157.421875 195.042969 C 156.914062 195.128906 156.398438 195.175781 155.882812 195.175781 C 155.363281 195.175781 154.847656 195.128906 154.339844 195.042969 C 153.828125 194.953125 153.335938 194.820312 152.855469 194.644531 C 152.375 194.472656 151.921875 194.257812 151.488281 194.003906 C 151.058594 193.75 150.660156 193.460938 150.292969 193.140625 C 149.925781 192.816406 149.597656 192.464844 149.308594 192.085938 C 149.019531 191.707031 148.777344 191.304688 148.578125 190.882812 C 148.378906 190.460938 148.230469 190.027344 148.128906 189.578125 C 148.027344 189.128906 147.976562 188.679688 147.976562 188.222656 C 147.976562 187.765625 148.027344 187.3125 148.128906 186.867188 C 148.230469 186.417969 148.378906 185.984375 148.578125 185.5625 C 148.777344 185.140625 149.019531 184.738281 149.308594 184.359375 C 149.597656 183.980469 149.925781 183.628906 150.292969 183.304688 C 150.660156 182.980469 151.058594 182.695312 151.488281 182.441406 C 151.921875 182.1875 152.375 181.972656 152.855469 181.796875 C 153.335938 181.625 153.828125 181.492188 154.339844 181.402344 C 154.847656 181.3125 155.363281 181.269531 155.882812 181.269531 C 156.398438 181.269531 156.914062 181.3125 157.421875 181.402344 C 157.933594 181.492188 158.425781 181.625 158.90625 181.796875 C 159.386719 181.972656 159.839844 182.1875 160.273438 182.441406 C 160.703125 182.695312 161.105469 182.980469 161.46875 183.304688 C 161.835938 183.628906 162.164062 183.980469 162.453125 184.359375 C 162.742188 184.738281 162.984375 185.140625 163.183594 185.5625 C 163.382812 185.984375 163.53125 186.417969 163.632812 186.867188 C 163.734375 187.3125 163.785156 187.765625 163.785156 188.222656 Z M 163.785156 188.222656 " fill-opacity="1" fill-rule="nonzero"/><path fill="#c3607e" d="M 165.367188 210.664062 C 165.367188 211.117188 165.316406 211.570312 165.214844 212.019531 C 165.113281 212.464844 164.964844 212.902344 164.765625 213.324219 C 164.566406 213.746094 164.324219 214.144531 164.035156 214.527344 C 163.746094 214.90625 163.417969 215.257812 163.050781 215.578125 C 162.683594 215.902344 162.285156 216.191406 161.855469 216.445312 C 161.421875 216.699219 160.964844 216.910156 160.488281 217.085938 C 160.007812 217.261719 159.511719 217.394531 159.003906 217.480469 C 158.496094 217.570312 157.980469 217.617188 157.460938 217.617188 C 156.941406 217.617188 156.429688 217.570312 155.917969 217.480469 C 155.410156 217.394531 154.917969 217.261719 154.4375 217.085938 C 153.957031 216.910156 153.503906 216.699219 153.070312 216.445312 C 152.640625 216.191406 152.238281 215.902344 151.871094 215.578125 C 151.503906 215.257812 151.179688 214.90625 150.890625 214.527344 C 150.601562 214.144531 150.359375 213.746094 150.160156 213.324219 C 149.960938 212.902344 149.808594 212.464844 149.710938 212.019531 C 149.609375 211.570312 149.558594 211.117188 149.558594 210.664062 C 149.558594 210.207031 149.609375 209.753906 149.710938 209.304688 C 149.808594 208.859375 149.960938 208.421875 150.160156 208 C 150.359375 207.578125 150.601562 207.179688 150.890625 206.800781 C 151.179688 206.417969 151.503906 206.070312 151.871094 205.746094 C 152.238281 205.421875 152.640625 205.132812 153.070312 204.878906 C 153.503906 204.628906 153.957031 204.414062 154.4375 204.238281 C 154.917969 204.0625 155.410156 203.933594 155.917969 203.84375 C 156.429688 203.753906 156.941406 203.710938 157.460938 203.710938 C 157.980469 203.710938 158.496094 203.753906 159.003906 203.84375 C 159.511719 203.933594 160.007812 204.0625 160.488281 204.238281 C 160.964844 204.414062 161.421875 204.628906 161.855469 204.878906 C 162.285156 205.132812 162.683594 205.421875 163.050781 205.746094 C 163.417969 206.070312 163.746094 206.417969 164.035156 206.800781 C 164.324219 207.179688 164.566406 207.578125 164.765625 208 C 164.964844 208.421875 165.113281 208.859375 165.214844 209.304688 C 165.316406 209.753906 165.367188 210.207031 165.367188 210.664062 Z M 165.367188 210.664062 " fill-opacity="1" fill-rule="nonzero"/><path fill="#c3607e" d="M 129.953125 167.992188 C 129.953125 168.453125 129.855469 168.898438 129.664062 169.324219 C 129.472656 169.75 129.199219 170.125 128.84375 170.453125 C 128.488281 170.777344 128.078125 171.03125 127.613281 171.207031 C 127.148438 171.382812 126.664062 171.46875 126.160156 171.46875 C 125.65625 171.46875 125.171875 171.382812 124.707031 171.207031 C 124.242188 171.03125 123.832031 170.777344 123.476562 170.453125 C 123.121094 170.125 122.847656 169.75 122.652344 169.324219 C 122.460938 168.898438 122.363281 168.453125 122.363281 167.992188 C 122.363281 167.53125 122.460938 167.089844 122.652344 166.664062 C 122.847656 166.238281 123.121094 165.863281 123.476562 165.535156 C 123.832031 165.210938 124.242188 164.957031 124.707031 164.78125 C 125.171875 164.605469 125.65625 164.515625 126.160156 164.515625 C 126.664062 164.515625 127.148438 164.605469 127.613281 164.78125 C 128.078125 164.957031 128.488281 165.210938 128.84375 165.535156 C 129.199219 165.863281 129.472656 166.238281 129.664062 166.664062 C 129.855469 167.089844 129.953125 167.53125 129.953125 167.992188 Z M 129.953125 167.992188 " fill-opacity="1" fill-rule="nonzero"/><path fill="#c3607e" d="M 190.660156 180.003906 C 190.660156 180.464844 190.566406 180.910156 190.375 181.335938 C 190.179688 181.761719 189.90625 182.136719 189.550781 182.460938 C 189.195312 182.789062 188.785156 183.039062 188.320312 183.214844 C 187.855469 183.394531 187.371094 183.480469 186.867188 183.480469 C 186.363281 183.480469 185.878906 183.394531 185.414062 183.214844 C 184.949219 183.039062 184.539062 182.789062 184.183594 182.460938 C 183.828125 182.136719 183.554688 181.761719 183.363281 181.335938 C 183.167969 180.910156 183.074219 180.464844 183.074219 180.003906 C 183.074219 179.542969 183.167969 179.101562 183.363281 178.675781 C 183.554688 178.246094 183.828125 177.871094 184.183594 177.546875 C 184.539062 177.21875 184.949219 176.96875 185.414062 176.792969 C 185.878906 176.617188 186.363281 176.527344 186.867188 176.527344 C 187.371094 176.527344 187.855469 176.617188 188.320312 176.792969 C 188.785156 176.96875 189.195312 177.21875 189.550781 177.546875 C 189.90625 177.871094 190.179688 178.246094 190.371094 178.675781 C 190.566406 179.101562 190.660156 179.542969 190.660156 180.003906 Z M 190.660156 180.003906 " fill-opacity="1" fill-rule="nonzero"/><path fill="#c3607e" d="M 166.632812 166.414062 C 166.632812 166.875 166.535156 167.316406 166.34375 167.746094 C 166.148438 168.171875 165.875 168.546875 165.519531 168.871094 C 165.164062 169.199219 164.753906 169.449219 164.289062 169.625 C 163.824219 169.800781 163.339844 169.890625 162.835938 169.890625 C 162.335938 169.890625 161.851562 169.800781 161.386719 169.625 C 160.921875 169.449219 160.511719 169.199219 160.15625 168.871094 C 159.796875 168.546875 159.523438 168.171875 159.332031 167.742188 C 159.140625 167.316406 159.042969 166.875 159.042969 166.414062 C 159.042969 165.953125 159.140625 165.507812 159.332031 165.082031 C 159.523438 164.65625 159.796875 164.28125 160.15625 163.957031 C 160.511719 163.628906 160.921875 163.378906 161.386719 163.203125 C 161.851562 163.023438 162.335938 162.9375 162.835938 162.9375 C 163.339844 162.9375 163.824219 163.023438 164.289062 163.203125 C 164.753906 163.378906 165.164062 163.628906 165.519531 163.957031 C 165.875 164.28125 166.148438 164.65625 166.34375 165.082031 C 166.535156 165.507812 166.632812 165.953125 166.632812 166.414062 Z M 166.632812 166.414062 " fill-opacity="1" fill-rule="nonzero"/><path fill="#c3607e" d="M 126.160156 193.277344 C 126.160156 193.738281 126.0625 194.183594 125.871094 194.609375 C 125.679688 195.035156 125.402344 195.410156 125.046875 195.738281 C 124.691406 196.0625 124.28125 196.316406 123.816406 196.492188 C 123.351562 196.667969 122.867188 196.753906 122.363281 196.753906 C 121.863281 196.753906 121.378906 196.667969 120.914062 196.492188 C 120.449219 196.316406 120.039062 196.0625 119.683594 195.738281 C 119.328125 195.410156 119.050781 195.035156 118.859375 194.609375 C 118.667969 194.183594 118.570312 193.738281 118.570312 193.277344 C 118.570312 192.816406 118.667969 192.375 118.859375 191.949219 C 119.050781 191.523438 119.328125 191.148438 119.683594 190.820312 C 120.039062 190.496094 120.449219 190.242188 120.914062 190.066406 C 121.378906 189.890625 121.863281 189.800781 122.363281 189.800781 C 122.867188 189.800781 123.351562 189.890625 123.816406 190.066406 C 124.28125 190.242188 124.691406 190.496094 125.046875 190.820312 C 125.402344 191.148438 125.679688 191.523438 125.871094 191.949219 C 126.0625 192.375 126.160156 192.816406 126.160156 193.277344 Z M 126.160156 193.277344 " fill-opacity="1" fill-rule="nonzero"/></svg>