<?xml version="1.0" standalone="no"?><!DOCTYPE svg PUBLIC "-//W3C//DTD SVG 1.1//EN" "http://www.w3.org/Graphics/SVG/1.1/DTD/svg11.dtd"><svg class="icon" width="200px" height="200.00px" viewBox="0 0 1024 1024" version="1.1" xmlns="http://www.w3.org/2000/svg"><path fill="#333333" d="M512 115.456c-219.005156 0-396.544 177.539982-396.544 396.542862 0 219.005156 177.538844 396.545138 396.544 396.545138 219.004018 0 396.544-177.539982 396.544-396.544 0-219.005156-177.539982-396.544-396.544-396.544z m248.242631 543.352604c-11.301547 5.999502-28.98944-7.715271-45.587342-32.967111-6.549049 27.511467-22.831787 52.453831-46.058382 72.397938 24.392818 9.197796 40.289849 24.23808 40.289849 41.230791 0 27.898311-43.10016 50.573084-96.244623 50.573085-47.928889 0-87.748836-18.39104-95.079537-42.548338a282.532978 282.532978 0 0 0-11.451734 0c-7.328427 24.157298-47.069867 42.548338-94.999893 42.548338-53.151289 0-96.24576-22.59968-96.24576-50.573085 0-16.996124 15.897031-32.032996 40.285298-41.228515-23.218631-20.030578-39.431964-44.888747-46.056107-72.400214-16.596764 25.252978-34.368853 39.041707-45.665849 32.96256-16.443164-8.726756-13.093547-55.637333 7.326151-104.813226 16.048356-38.656 37.950578-67.099307 54.471111-73.41056-0.230969-2.497422-0.310613-4.911787-0.310613-7.406934 0-14.959502 4.05504-28.75392 10.912427-39.979235 0-0.855609-0.076231-1.794276-0.076231-2.647609a43.292444 43.292444 0 0 1 4.36224-18.859805c4.133547-100.453262 68.189298-180.179627 171.762346-180.179626 103.574187 0 167.55712 79.726364 171.763485 180.176213 2.727253 5.535289 4.364516 12.004693 4.364515 18.859805 0 0.86016 0 1.795413-0.157013 2.651022 6.940444 11.224178 10.985244 25.093689 10.985244 39.979235 0 2.414364-0.1536 4.98688-0.386844 7.40352 16.596764 6.315804 38.423893 34.760249 54.472249 73.413974 20.494791 49.098524 23.765902 96.091022 7.325013 104.817777z" /></svg>