<?xml version="1.0" standalone="no"?><!DOCTYPE svg PUBLIC "-//W3C//DTD SVG 1.1//EN" "http://www.w3.org/Graphics/SVG/1.1/DTD/svg11.dtd"><svg class="icon" width="200px" height="200.00px" viewBox="0 0 1024 1024" version="1.1" xmlns="http://www.w3.org/2000/svg"><path fill="#333333" d="M349.904213 353.878471c-16.288427 0-32.965973 10.775893-32.965973 27.319182 0 16.512569 16.675271 27.326009 32.965973 27.326009 16.684373 0 27.544462-11.1616 27.544463-27.322595 0-16.546702-11.2128-27.322596-27.544463-27.322596zM575.067022 511.654116c-10.860089 0-22.109298 11.163876-22.109298 21.935217 0 11.160462 11.249209 21.932942 22.109298 21.932943 16.677547 0 27.539911-10.773618 27.539911-21.932943 0-11.122916-10.862364-21.935218-27.539911-21.935217zM503.622542 408.523662c16.675271 0 27.53536-11.1616 27.53536-27.322595 0-16.546702-10.860089-27.322596-27.53536-27.322596-16.331662 0-32.971662 10.775893-32.971662 27.319182 0 16.512569 16.637724 27.326009 32.971662 27.326009zM695.811413 511.654116c-10.934044 0-21.797547 11.163876-21.797546 21.935217 0 11.160462 10.899911 21.932942 21.797546 21.932943 16.642276 0 27.539911-10.773618 27.539911-21.932943 0-11.122916-10.897636-21.935218-27.539911-21.935217zM512 115.456c-219.004018 0-396.544 177.539982-396.544 396.542862 0 219.005156 177.539982 396.545138 396.544 396.545138S908.544 731.004018 908.544 512c0-219.005156-177.539982-396.544-396.544-396.544z m-90.955093 516.377031c-27.188338 0-49.298773-5.38624-76.84096-10.778169l-76.87168 38.099627 22.104746-65.422222c-54.766933-38.136036-87.735182-87.391573-87.735182-147.115805 0-103.590116 98.90816-185.173333 219.615005-185.596586 107.944391 0 202.701938 65.496178 221.5936 153.156266-7.022364-0.616676-14.082276-1.268622-21.139912-1.268622l0.039823 0.037547c-104.379733 0-186.682027 77.195947-186.998329 172.169671a166.387484 166.387484 0 0 0 6.708338 45.788729c-6.704924 0.623502-13.420089 0.929564-20.475449 0.929564z m324.066417 76.806827l16.637725 54.337991-60.197547-32.708836c-22.069476 5.424924-44.174222 10.81344-65.97632 10.81344-104.377458 0-186.684302-70.880142-186.684302-158.235306 0-87.045689 82.306844-158.198898 186.684302-158.198898 98.986667 0 186.725262 71.152071 186.725262 158.198898 0 48.908516-32.971662 92.470613-77.18912 125.792711z" /></svg>