<?xml version="1.0" standalone="no"?><!DOCTYPE svg PUBLIC "-//W3C//DTD SVG 1.1//EN" "http://www.w3.org/Graphics/SVG/1.1/DTD/svg11.dtd"><svg class="icon" width="200px" height="200.00px" viewBox="0 0 1024 1024" version="1.1" xmlns="http://www.w3.org/2000/svg"><path fill="#333333" d="M512 115.456c-219.005156 0-396.544 177.539982-396.544 396.542862 0 219.005156 177.539982 396.545138 396.544 396.545138S908.544 731.004018 908.544 512c0-219.005156-177.538844-396.544-396.544-396.544z m128.58368 530.008747c7.764196 15.530667 10.225209 31.064747 7.949653 49.186133v98.377956c0 15.532942-10.06592 25.888996-25.6 25.888995S597.333333 808.561778 597.333333 793.028836v-100.9664c0-18.120249-5.65248-36.242773-18.594702-49.186134-5.178027-5.175751-8.004267-15.530667-5.414684-25.88672 2.587307-10.358329 10.234311-18.127076 20.591502-18.127075 75.07968-7.76192 144.917618-33.650916 144.917618-155.331698 0-31.065884-10.385636-59.542187-31.095467-80.253156-7.764196-5.175751-7.778987-15.531804-5.192818-25.887857 7.767609-20.710969 7.759644-41.421938 2.582756-62.135183-10.354916 2.589582-33.660018 10.356053-67.315485 33.657743-5.178027 2.589582-12.944498 5.179164-20.713244 2.589582-54.365298-15.532942-113.910898-15.532942-168.275058 0-7.768747 2.587307-15.53408 2.587307-23.301689-2.589582-31.065884-23.300551-54.36416-31.067022-67.309795-33.657743-5.178027 20.714382-5.178027 41.425351 2.589582 64.724765 2.586169 7.767609 2.586169 18.1248-5.179165 25.888995-20.712107 23.300551-31.065884 49.188409-31.065884 80.256569 0 121.676231 69.897102 144.975644 144.974507 155.333974 10.357191 2.586169 18.120249 7.76192 20.712106 18.120248 5.176889 7.766471 2.929778 18.1248-4.835555 25.888996C472.46336 658.41152 467.626667 673.942187 467.626667 692.062436v100.9664c0 15.532942-10.635947 25.888996-26.168889 25.888995s-26.168889-10.356053-26.168889-25.888995v-44.009245c-77.368889 10.358329-111.383893-31.064747-134.682169-62.135182-10.358329-12.942222-20.741689-23.298276-28.50816-25.888996-12.945636-2.583893-20.730311-18.120249-18.138453-31.067022 2.587307-12.942222 18.115698-20.710969 31.059057-18.120249 28.478578 5.178027 44.069547 25.888996 57.011769 44.009245C342.74304 684.300516 361.813333 705.009209 415.288889 694.65088v-2.588444c0-15.532942 2.52928-31.067022 7.705031-49.186134-72.486684-15.530667-150.185529-59.544462-150.185529-199.345493 0-36.242773 12.926293-72.486684 36.22912-103.553707-10.357191-33.653191-7.777849-67.310933 7.756231-100.967538 2.589582-7.765333 7.765333-12.942222 15.529529-15.53408 10.354916-2.585031 44.010382-7.764196 113.907485 36.243912 54.366436-12.942222 113.907484-12.942222 170.863502 0 69.900516-44.010382 103.55712-38.831218 113.912035-36.243912 7.764196 2.591858 12.942222 7.768747 15.532943 15.53408 12.942222 31.067022 15.531804 67.314347 7.764195 100.967538 23.301689 31.067022 36.338347 64.723627 36.338347 103.553707 0.002276 147.56864-87.926329 188.98944-150.058098 201.933938z" /></svg>